<svg xmlns="http://www.w3.org/2000/svg" width="1100" height="690" viewBox="0 0 1100 690" role="img" aria-labelledby="title">
<title>时瞳回响时代流程图</title>
<defs>
<marker id="arrow" viewBox="0 0 10 10" refX="9" refY="5" markerWidth="8" markerHeight="8" orient="auto-start-reverse">
<path d="M 0 0 L 10 5 L 0 10 z" fill="#64748b"/>
</marker>
</defs>
<rect width="100%" height="100%" rx="24" fill="#ffffff"/>
<g font-family="Microsoft YaHei, Noto Sans SC, Inter, Arial, sans-serif">
<path d="M500 100 C500 127.5, 200 127.5, 200 155" fill="none" stroke="#64748b" stroke-width="2.4" marker-end="url(#arrow)"/>
<path d="M550 100 C550 127.5, 550 127.5, 550 155" fill="none" stroke="#64748b" stroke-width="2.4" marker-end="url(#arrow)"/>
<path d="M600 100 C600 127.5, 900 127.5, 900 155" fill="none" stroke="#64748b" stroke-width="2.4" marker-end="url(#arrow)"/>
<path d="M200 225 C200 262.5, 200 262.5, 200 300" fill="none" stroke="#64748b" stroke-width="2.4" marker-end="url(#arrow)"/>
<path d="M550 225 C550 262.5, 550 262.5, 550 300" fill="none" stroke="#64748b" stroke-width="2.4" marker-end="url(#arrow)"/>
<path d="M900 225 C900 262.5, 900 262.5, 900 300" fill="none" stroke="#64748b" stroke-width="2.4" marker-end="url(#arrow)"/>
<path d="M550 370 C550 407.5, 550 407.5, 550 445" fill="none" stroke="#64748b" stroke-width="2.4" marker-end="url(#arrow)"/>
<path d="M200 370 C200 477.5, 500 477.5, 500 585" fill="none" stroke="#64748b" stroke-width="2.4" marker-end="url(#arrow)"/>
<path d="M550 515 C550 550.0, 550 550.0, 550 585" fill="none" stroke="#64748b" stroke-width="2.4" marker-end="url(#arrow)"/>
<path d="M900 370 C900 477.5, 600 477.5, 600 585" fill="none" stroke="#64748b" stroke-width="2.4" marker-end="url(#arrow)"/>
<rect x="425" y="30" width="250" height="70" rx="14" fill="#eef6ff" stroke="#9fc5f8" stroke-width="2"/>
<text text-anchor="middle" font-size="22" font-weight="600" fill="#1f2937"><tspan x="550.0" y="53.0">时间门</tspan><tspan x="550.0" y="77.0">时代切换</tspan></text>
<rect x="60" y="155" width="280" height="70" rx="14" fill="#f8fbff" stroke="#cfd9e6" stroke-width="2"/>
<text text-anchor="middle" font-size="22" font-weight="600" fill="#1f2937"><tspan x="200.0" y="178.0">古代</tspan><tspan x="200.0" y="202.0">竹林与回音竹</tspan></text>
<rect x="410" y="155" width="280" height="70" rx="14" fill="#f8fbff" stroke="#cfd9e6" stroke-width="2"/>
<text text-anchor="middle" font-size="22" font-weight="600" fill="#1f2937"><tspan x="550.0" y="178.0">现代过去</tspan><tspan x="550.0" y="202.0">营养液救树</tspan></text>
<rect x="760" y="155" width="280" height="70" rx="14" fill="#f8fbff" stroke="#cfd9e6" stroke-width="2"/>
<text text-anchor="middle" font-size="22" font-weight="600" fill="#1f2937"><tspan x="900.0" y="178.0">未来</tspan><tspan x="900.0" y="202.0">高塔与机器人核心</tspan></text>
<rect x="60" y="300" width="280" height="70" rx="14" fill="#eef6ff" stroke="#9fc5f8" stroke-width="2"/>
<text text-anchor="middle" font-size="22" font-weight="600" fill="#1f2937"><tspan x="200.0" y="323.0">竹笛</tspan><tspan x="200.0" y="347.0">敬畏乐谱</tspan></text>
<rect x="410" y="300" width="280" height="70" rx="14" fill="#f8fbff" stroke="#cfd9e6" stroke-width="2"/>
<text text-anchor="middle" font-size="22" font-weight="600" fill="#1f2937"><tspan x="550.0" y="323.0">现代现在</tspan><tspan x="550.0" y="347.0">树枝开路</tspan></text>
<rect x="760" y="300" width="280" height="70" rx="14" fill="#eef6ff" stroke="#9fc5f8" stroke-width="2"/>
<text text-anchor="middle" font-size="22" font-weight="600" fill="#1f2937"><tspan x="900.0" y="323.0">调音器</tspan><tspan x="900.0" y="347.0">希望乐谱</tspan></text>
<rect x="410" y="445" width="280" height="70" rx="14" fill="#eef6ff" stroke="#9fc5f8" stroke-width="2"/>
<text text-anchor="middle" font-size="22" font-weight="600" fill="#1f2937"><tspan x="550.0" y="468.0">木吉他</tspan><tspan x="550.0" y="492.0">怀念乐谱</tspan></text>
<rect x="425" y="585" width="250" height="70" rx="14" fill="#eef6ff" stroke="#9fc5f8" stroke-width="2"/>
<text text-anchor="middle" font-size="22" font-weight="600" fill="#1f2937"><tspan x="550.0" y="608.0">高塔终章</tspan><tspan x="550.0" y="632.0">三时代合奏</tspan></text>
</g></svg>
