<svg xmlns="http://www.w3.org/2000/svg" width="1000" height="820" viewBox="0 0 1000 820" role="img" aria-labelledby="title">
<title>Elegy of Asherah system flow</title>
<defs>
<marker id="arrow" viewBox="0 0 10 10" refX="9" refY="5" markerWidth="8" markerHeight="8" orient="auto-start-reverse">
<path d="M 0 0 L 10 5 L 0 10 z" fill="#64748b"/>
</marker>
</defs>
<rect width="100%" height="100%" rx="24" fill="#ffffff"/>
<g font-family="Microsoft YaHei, Noto Sans SC, Inter, Arial, sans-serif">
<path d="M500 100 C500 115.0, 500 115.0, 500 130" fill="none" stroke="#64748b" stroke-width="2.4" marker-end="url(#arrow)"/>
<path d="M500 200 C500 215.0, 500 215.0, 500 230" fill="none" stroke="#64748b" stroke-width="2.4" marker-end="url(#arrow)"/>
<path d="M500 300 C500 315.0, 500 315.0, 500 330" fill="none" stroke="#64748b" stroke-width="2.4" marker-end="url(#arrow)"/>
<path d="M350 400 C350 425.0, 240 425.0, 240 450" fill="none" stroke="#64748b" stroke-width="2.4" marker-end="url(#arrow)"/>
<path d="M650 400 C650 425.0, 760 425.0, 760 450" fill="none" stroke="#64748b" stroke-width="2.4" marker-end="url(#arrow)"/>
<path d="M240 520 C240 540.0, 240 540.0, 240 560" fill="none" stroke="#64748b" stroke-width="2.4" marker-end="url(#arrow)"/>
<path d="M240 630 C240 650.0, 240 650.0, 240 670" fill="none" stroke="#64748b" stroke-width="2.4" marker-end="url(#arrow)"/>
<path d="M390 485 C390 595.0, 610 595.0, 610 705" fill="none" stroke="#64748b" stroke-width="2.4" marker-end="url(#arrow)"/>
<rect x="375" y="30" width="250" height="70" rx="14" fill="#eef6ff" stroke="#9fc5f8" stroke-width="2"/>
<text text-anchor="middle" font-size="22" font-weight="600" fill="#1f2937"><tspan x="500.0" y="65.0">Player input</tspan></text>
<rect x="375" y="130" width="250" height="70" rx="14" fill="#f8fbff" stroke="#cfd9e6" stroke-width="2"/>
<text text-anchor="middle" font-size="22" font-weight="600" fill="#1f2937"><tspan x="500.0" y="165.0">Move / jump / dash</tspan></text>
<rect x="350" y="230" width="300" height="70" rx="14" fill="#f8fbff" stroke="#cfd9e6" stroke-width="2"/>
<text text-anchor="middle" font-size="22" font-weight="600" fill="#1f2937"><tspan x="500.0" y="253.0">Ground / wall</tspan><tspan x="500.0" y="277.0">damage checks</tspan></text>
<rect x="350" y="330" width="300" height="70" rx="14" fill="#eef6ff" stroke="#9fc5f8" stroke-width="2"/>
<text text-anchor="middle" font-size="22" font-weight="600" fill="#1f2937"><tspan x="500.0" y="353.0">Form switching</tspan><tspan x="500.0" y="377.0">MaskControl</tspan></text>
<rect x="90" y="450" width="300" height="70" rx="14" fill="#eef6ff" stroke="#9fc5f8" stroke-width="2"/>
<text text-anchor="middle" font-size="22" font-weight="600" fill="#1f2937"><tspan x="240.0" y="473.0">Spirit-energy drain</tspan><tspan x="240.0" y="497.0">EnergyManager</tspan></text>
<rect x="610" y="450" width="300" height="70" rx="14" fill="#f8fbff" stroke="#cfd9e6" stroke-width="2"/>
<text text-anchor="middle" font-size="22" font-weight="600" fill="#1f2937"><tspan x="760.0" y="473.0">Background / lighting</tspan><tspan x="760.0" y="497.0">music switching</tspan></text>
<rect x="90" y="560" width="300" height="70" rx="14" fill="#f8fbff" stroke="#cfd9e6" stroke-width="2"/>
<text text-anchor="middle" font-size="22" font-weight="600" fill="#1f2937"><tspan x="240.0" y="583.0">Safe time</tspan><tspan x="240.0" y="607.0">underground check</tspan></text>
<rect x="90" y="670" width="300" height="70" rx="14" fill="#f8fbff" stroke="#cfd9e6" stroke-width="2"/>
<text text-anchor="middle" font-size="22" font-weight="600" fill="#1f2937"><tspan x="240.0" y="693.0">Platforms / mechanisms</tspan><tspan x="240.0" y="717.0">shortcuts</tspan></text>
<rect x="610" y="670" width="300" height="70" rx="14" fill="#eef6ff" stroke="#9fc5f8" stroke-width="2"/>
<text text-anchor="middle" font-size="22" font-weight="600" fill="#1f2937"><tspan x="760.0" y="693.0">Ending check</tspan><tspan x="760.0" y="717.0">EndingManager</tspan></text>
</g></svg>
