<svg xmlns="http://www.w3.org/2000/svg" width="96" height="96" viewBox="0 0 96 96" role="img" aria-labelledby="title">
  <title id="title">Left Jun LJ threshold mark</title>
  <defs>
    <linearGradient id="tile" x1="18" y1="14" x2="78" y2="84" gradientUnits="userSpaceOnUse">
      <stop stop-color="#ffffff"/>
      <stop offset="0.56" stop-color="#f3fbff"/>
      <stop offset="1" stop-color="#e6f6ff"/>
    </linearGradient>
    <linearGradient id="cyan" x1="27" y1="24" x2="70" y2="68" gradientUnits="userSpaceOnUse">
      <stop stop-color="#58e3ff"/>
      <stop offset="1" stop-color="#0877ff"/>
    </linearGradient>
    <filter id="glow" x="-35%" y="-35%" width="170%" height="170%">
      <feGaussianBlur stdDeviation="2.4" result="blur"/>
      <feColorMatrix in="blur" values="0 0 0 0 0.04 0 0 0 0 0.56 0 0 0 0 1 0 0 0 0.5 0"/>
      <feBlend in="SourceGraphic"/>
    </filter>
  </defs>
  <rect x="10" y="10" width="76" height="76" rx="22" fill="url(#tile)" stroke="#a6dcff" stroke-width="2"/>
  <path d="M28 24v31h21" fill="none" stroke="#10233d" stroke-width="7" stroke-linecap="round" stroke-linejoin="round"/>
  <path d="M62 28v25c0 10.8-7 17.2-16.5 17.2-5.6 0-10.1-2.1-13.6-6" fill="none" stroke="#10233d" stroke-width="7" stroke-linecap="round"/>
  <path d="M38 45c6.2-5.4 13.4-8.2 23.8-8.2" fill="none" stroke="url(#cyan)" stroke-width="3.2" stroke-linecap="round"/>
  <circle cx="62" cy="36.8" r="4.8" fill="#f7fdff" stroke="url(#cyan)" stroke-width="3" filter="url(#glow)"/>
  <path d="M22 20h11M22 20v11M72 66h5M77 61v5" fill="none" stroke="#86d4ff" stroke-width="2.3" stroke-linecap="round"/>
</svg>
