<svg xmlns="http://www.w3.org/2000/svg" width="96" height="96" viewBox="0 0 96 96" role="img" aria-labelledby="title">
  <title id="title">Left Jun LJ pixel-edge mark</title>
  <defs>
    <linearGradient id="tile" x1="18" y1="14" x2="78" y2="84" gradientUnits="userSpaceOnUse">
      <stop stop-color="#ffffff"/>
      <stop offset="1" stop-color="#e9f7ff"/>
    </linearGradient>
    <linearGradient id="cyan" x1="26" y1="22" x2="72" y2="72" gradientUnits="userSpaceOnUse">
      <stop stop-color="#55e2ff"/>
      <stop offset="1" stop-color="#0a77ff"/>
    </linearGradient>
    <filter id="glow" x="-35%" y="-35%" width="170%" height="170%">
      <feGaussianBlur stdDeviation="2.3" result="blur"/>
      <feColorMatrix in="blur" values="0 0 0 0 0.04 0 0 0 0 0.56 0 0 0 0 1 0 0 0 0.45 0"/>
      <feBlend in="SourceGraphic"/>
    </filter>
  </defs>
  <path d="M18 10h52l16 16v52l-8 8H18L10 78V18z" fill="url(#tile)" stroke="#a8dcff" stroke-width="2"/>
  <path d="M29 24v32h22" fill="none" stroke="#10233d" stroke-width="7" stroke-linecap="square" stroke-linejoin="miter"/>
  <path d="M62 29v24c0 11-7 17-16.5 17-5.8 0-10.3-2.1-13.6-5.8" fill="none" stroke="#10233d" stroke-width="7" stroke-linecap="square"/>
  <path d="M39 44h8v-4h8v-4h8" fill="none" stroke="url(#cyan)" stroke-width="3.2" stroke-linecap="square" stroke-linejoin="miter"/>
  <rect x="59" y="32" width="8" height="8" rx="2" fill="#f8fdff" stroke="url(#cyan)" stroke-width="3" filter="url(#glow)"/>
  <path d="M22 22h8M22 22v8M72 66h5M77 61v5" fill="none" stroke="#86d4ff" stroke-width="2.3" stroke-linecap="square"/>
</svg>
