<svg xmlns="http://www.w3.org/2000/svg" width="96" height="96" viewBox="0 0 96 96" role="img" aria-labelledby="title">
  <title id="title">Left Jun LJ beacon mark</title>
  <defs>
    <linearGradient id="tile" x1="18" y1="14" x2="78" y2="84" gradientUnits="userSpaceOnUse">
      <stop stop-color="#ffffff"/>
      <stop offset="1" stop-color="#e7f7ff"/>
    </linearGradient>
    <linearGradient id="cyan" x1="30" y1="22" x2="72" y2="74" gradientUnits="userSpaceOnUse">
      <stop stop-color="#5be5ff"/>
      <stop offset="1" stop-color="#0075ff"/>
    </linearGradient>
    <filter id="glow" x="-45%" y="-45%" width="190%" height="190%">
      <feGaussianBlur stdDeviation="3.2" result="blur"/>
      <feColorMatrix in="blur" values="0 0 0 0 0.03 0 0 0 0 0.58 0 0 0 0 1 0 0 0 0.55 0"/>
      <feBlend in="SourceGraphic"/>
    </filter>
  </defs>
  <rect x="10" y="10" width="76" height="76" rx="22" fill="url(#tile)" stroke="#a8dcff" stroke-width="2"/>
  <path d="M29 25v30h20" fill="none" stroke="#10233d" stroke-width="7" stroke-linecap="round" stroke-linejoin="round"/>
  <path d="M62 30v23.5c0 11-7.3 17.4-16.8 17.4-5.8 0-10.5-2.4-13.7-6.2" fill="none" stroke="#10233d" stroke-width="7" stroke-linecap="round"/>
  <path d="M35 58c7-2.8 14.2-7.8 21.8-15.2" fill="none" stroke="url(#cyan)" stroke-width="2.8" stroke-linecap="round" stroke-dasharray="4 5"/>
  <circle cx="64" cy="29.5" r="7.2" fill="#f8fdff" stroke="url(#cyan)" stroke-width="3" filter="url(#glow)"/>
  <circle cx="64" cy="29.5" r="2.2" fill="#0877ff"/>
  <path d="M64 17v4M64 38v4M52 29.5h4M72 29.5h4" fill="none" stroke="#69cfff" stroke-width="2.2" stroke-linecap="round"/>
</svg>
