<svg xmlns="http://www.w3.org/2000/svg" width="1000" height="790" viewBox="0 0 1000 790" role="img" aria-labelledby="title">
<title>Emotion Mask 系统流程图</title>
<defs>
<marker id="arrow" viewBox="0 0 10 10" refX="9" refY="5" markerWidth="8" markerHeight="8" orient="auto-start-reverse">
<path d="M 0 0 L 10 5 L 0 10 z" fill="#64748b"/>
</marker>
</defs>
<rect width="100%" height="100%" rx="24" fill="#ffffff"/>
<g font-family="Microsoft YaHei, Noto Sans SC, Inter, Arial, sans-serif">
<path d="M500 100 C500 112.5, 500 112.5, 500 125" fill="none" stroke="#64748b" stroke-width="2.4" marker-end="url(#arrow)"/>
<path d="M500 195 C500 207.5, 500 207.5, 500 220" fill="none" stroke="#64748b" stroke-width="2.4" marker-end="url(#arrow)"/>
<path d="M430 290 C430 312.5, 240 312.5, 240 335" fill="none" stroke="#64748b" stroke-width="2.4" marker-end="url(#arrow)"/>
<path d="M570 290 C570 312.5, 760 312.5, 760 335" fill="none" stroke="#64748b" stroke-width="2.4" marker-end="url(#arrow)"/>
<path d="M240 405 C240 427.5, 240 427.5, 240 450" fill="none" stroke="#64748b" stroke-width="2.4" marker-end="url(#arrow)"/>
<path d="M760 405 C760 427.5, 760 427.5, 760 450" fill="none" stroke="#64748b" stroke-width="2.4" marker-end="url(#arrow)"/>
<path d="M240 520 C240 547.5, 500 547.5, 500 575" fill="none" stroke="#64748b" stroke-width="2.4" marker-end="url(#arrow)"/>
<path d="M760 520 C760 547.5, 500 547.5, 500 575" fill="none" stroke="#64748b" stroke-width="2.4" marker-end="url(#arrow)"/>
<path d="M500 645 C500 670.0, 500 670.0, 500 695" fill="none" stroke="#64748b" stroke-width="2.4" marker-end="url(#arrow)"/>
<rect x="375" y="30" width="250" height="70" rx="14" fill="#eef6ff" stroke="#9fc5f8" stroke-width="2"/>
<text text-anchor="middle" font-size="22" font-weight="600" fill="#1f2937"><tspan x="500.0" y="65.0">玩家输入</tspan></text>
<rect x="375" y="125" width="250" height="70" rx="14" fill="#f8fbff" stroke="#cfd9e6" stroke-width="2"/>
<text text-anchor="middle" font-size="22" font-weight="600" fill="#1f2937"><tspan x="500.0" y="160.0">移动 / 跳跃 / 冲刺</tspan></text>
<rect x="350" y="220" width="300" height="70" rx="14" fill="#eef6ff" stroke="#9fc5f8" stroke-width="2"/>
<text text-anchor="middle" font-size="22" font-weight="600" fill="#1f2937"><tspan x="500.0" y="243.0">情绪切换</tspan><tspan x="500.0" y="267.0">MaskControl</tspan></text>
<rect x="90" y="335" width="300" height="70" rx="14" fill="#eef6ff" stroke="#9fc5f8" stroke-width="2"/>
<text text-anchor="middle" font-size="22" font-weight="600" fill="#1f2937"><tspan x="240.0" y="358.0">角色参数变化</tspan><tspan x="240.0" y="382.0">EmotionStats</tspan></text>
<rect x="610" y="335" width="300" height="70" rx="14" fill="#f8fbff" stroke="#cfd9e6" stroke-width="2"/>
<text text-anchor="middle" font-size="22" font-weight="600" fill="#1f2937"><tspan x="760.0" y="358.0">角色外观 / 背景</tspan><tspan x="760.0" y="382.0">音乐反馈</tspan></text>
<rect x="90" y="450" width="300" height="70" rx="14" fill="#f8fbff" stroke="#cfd9e6" stroke-width="2"/>
<text text-anchor="middle" font-size="22" font-weight="600" fill="#1f2937"><tspan x="240.0" y="473.0">隐藏平台</tspan><tspan x="240.0" y="497.0">移动平台</tspan></text>
<rect x="610" y="450" width="300" height="70" rx="14" fill="#f8fbff" stroke="#cfd9e6" stroke-width="2"/>
<text text-anchor="middle" font-size="22" font-weight="600" fill="#1f2937"><tspan x="760.0" y="473.0">愤怒冲刺</tspan><tspan x="760.0" y="497.0">可破坏障碍</tspan></text>
<rect x="350" y="575" width="300" height="70" rx="14" fill="#f8fbff" stroke="#cfd9e6" stroke-width="2"/>
<text text-anchor="middle" font-size="22" font-weight="600" fill="#1f2937"><tspan x="500.0" y="610.0">关卡路径判断</tspan></text>
<rect x="350" y="695" width="300" height="70" rx="14" fill="#eef6ff" stroke="#9fc5f8" stroke-width="2"/>
<text text-anchor="middle" font-size="22" font-weight="600" fill="#1f2937"><tspan x="500.0" y="718.0">碎片 / 计时</tspan><tspan x="500.0" y="742.0">终点结算</tspan></text>
</g></svg>
