<svg xmlns="http://www.w3.org/2000/svg" width="1000" height="870" viewBox="0 0 1000 870" role="img" aria-labelledby="title">
<title>Smart boat control flow</title>
<defs>
<marker id="arrow" viewBox="0 0 10 10" refX="9" refY="5" markerWidth="8" markerHeight="8" orient="auto-start-reverse">
<path d="M 0 0 L 10 5 L 0 10 z" fill="#64748b"/>
</marker>
</defs>
<rect width="100%" height="100%" rx="24" fill="#ffffff"/>
<g font-family="Microsoft YaHei, Noto Sans SC, Inter, Arial, sans-serif">
<path d="M500 100 C500 112.5, 500 112.5, 500 125" fill="none" stroke="#64748b" stroke-width="2.4" marker-end="url(#arrow)"/>
<path d="M500 195 C500 207.5, 500 207.5, 500 220" fill="none" stroke="#64748b" stroke-width="2.4" marker-end="url(#arrow)"/>
<path d="M500 290 C500 302.5, 500 302.5, 500 315" fill="none" stroke="#64748b" stroke-width="2.4" marker-end="url(#arrow)"/>
<path d="M500 385 C500 397.5, 500 397.5, 500 410" fill="none" stroke="#64748b" stroke-width="2.4" marker-end="url(#arrow)"/>
<path d="M500 480 C500 492.5, 500 492.5, 500 505" fill="none" stroke="#64748b" stroke-width="2.4" marker-end="url(#arrow)"/>
<path d="M500 575 C500 587.5, 500 587.5, 500 600" fill="none" stroke="#64748b" stroke-width="2.4" marker-end="url(#arrow)"/>
<path d="M430 670 C430 697.5, 240 697.5, 240 725" fill="none" stroke="#64748b" stroke-width="2.4" marker-end="url(#arrow)"/>
<path d="M570 670 C570 697.5, 760 697.5, 760 725" fill="none" stroke="#64748b" stroke-width="2.4" marker-end="url(#arrow)"/>
<path d="M240 795 C240 802.5, 500 802.5, 500 810" fill="none" stroke="#64748b" stroke-width="2.4" marker-end="url(#arrow)"/>
<path d="M760 795 C760 802.5, 500 802.5, 500 810" fill="none" stroke="#64748b" stroke-width="2.4" marker-end="url(#arrow)"/>
<path d="M305 635 C305 635.0, 350 635.0, 350 635" fill="none" stroke="#64748b" stroke-width="2.4" marker-end="url(#arrow)"/>
<rect x="375" y="30" width="250" height="70" rx="14" fill="#eef6ff" stroke="#9fc5f8" stroke-width="2"/>
<text text-anchor="middle" font-size="22" font-weight="600" fill="#1f2937"><tspan x="500.0" y="65.0">Joystick input</tspan></text>
<rect x="350" y="125" width="300" height="70" rx="14" fill="#f8fbff" stroke="#cfd9e6" stroke-width="2"/>
<text text-anchor="middle" font-size="22" font-weight="600" fill="#1f2937"><tspan x="500.0" y="148.0">ADC1 / ADC2</tspan><tspan x="500.0" y="172.0">sampling</tspan></text>
<rect x="350" y="220" width="300" height="70" rx="14" fill="#f8fbff" stroke="#cfd9e6" stroke-width="2"/>
<text text-anchor="middle" font-size="22" font-weight="600" fill="#1f2937"><tspan x="500.0" y="243.0">Dead zone / mapping</tspan><tspan x="500.0" y="267.0">limiting</tspan></text>
<rect x="350" y="315" width="300" height="70" rx="14" fill="#eef6ff" stroke="#9fc5f8" stroke-width="2"/>
<text text-anchor="middle" font-size="22" font-weight="600" fill="#1f2937"><tspan x="500.0" y="338.0">3-byte packet</tspan><tspan x="500.0" y="362.0">tx_data[3]</tspan></text>
<rect x="350" y="410" width="300" height="70" rx="14" fill="#f8fbff" stroke="#cfd9e6" stroke-width="2"/>
<text text-anchor="middle" font-size="22" font-weight="600" fill="#1f2937"><tspan x="500.0" y="433.0">NRF24L01</tspan><tspan x="500.0" y="457.0">SPI transmit</tspan></text>
<rect x="350" y="505" width="300" height="70" rx="14" fill="#f8fbff" stroke="#cfd9e6" stroke-width="2"/>
<text text-anchor="middle" font-size="22" font-weight="600" fill="#1f2937"><tspan x="500.0" y="528.0">2.402GHz</tspan><tspan x="500.0" y="552.0">wireless link</tspan></text>
<rect x="350" y="600" width="300" height="70" rx="14" fill="#eef6ff" stroke="#9fc5f8" stroke-width="2"/>
<text text-anchor="middle" font-size="22" font-weight="600" fill="#1f2937"><tspan x="500.0" y="623.0">Onboard receive</tspan><tspan x="500.0" y="647.0">and decode</tspan></text>
<rect x="90" y="725" width="300" height="70" rx="14" fill="#f8fbff" stroke="#cfd9e6" stroke-width="2"/>
<text text-anchor="middle" font-size="22" font-weight="600" fill="#1f2937"><tspan x="240.0" y="748.0">TIM2 PWM</tspan><tspan x="240.0" y="772.0">servo steering</tspan></text>
<rect x="610" y="725" width="300" height="70" rx="14" fill="#f8fbff" stroke="#cfd9e6" stroke-width="2"/>
<text text-anchor="middle" font-size="22" font-weight="600" fill="#1f2937"><tspan x="760.0" y="748.0">TIM1 PWM</tspan><tspan x="760.0" y="772.0">ESC throttle</tspan></text>
<rect x="350" y="810" width="300" height="45" rx="14" fill="#eef6ff" stroke="#9fc5f8" stroke-width="2"/>
<text text-anchor="middle" font-size="22" font-weight="600" fill="#1f2937"><tspan x="500.0" y="832.5">Boat motion feedback</tspan></text>
<rect x="55" y="600" width="250" height="70" rx="14" fill="#f8fbff" stroke="#cfd9e6" stroke-width="2"/>
<text text-anchor="middle" font-size="22" font-weight="600" fill="#1f2937"><tspan x="180.0" y="623.0">Self-check / LED</tspan><tspan x="180.0" y="647.0">ESC calibration</tspan></text>
</g></svg>
